<mxfile host="app.diagrams.net" modified="2022-04-06T12:26:58.595Z" agent="5.0 (Windows NT 10.0; Win64; x64) AppleWebKit/537.36 (KHTML, like Gecko) Chrome/100.0.4896.75 Safari/537.36" etag="Jrhpq2-nQV6HlgPuYQxk" version="17.4.0" type="github">
  <diagram id="6a731a19-8d31-9384-78a2-239565b7b9f0" name="Page-1">
    <mxGraphModel dx="1221" dy="644" grid="1" gridSize="10" guides="1" tooltips="1" connect="1" arrows="1" fold="1" page="1" pageScale="1" pageWidth="1169" pageHeight="827" background="none" math="0" shadow="0">
      <root>
        <mxCell id="0" />
        <mxCell id="1" parent="0" />
        <mxCell id="_aBx_GySUvGOmHs6bhtP-1782" value="" style="edgeStyle=orthogonalEdgeStyle;rounded=0;orthogonalLoop=1;jettySize=auto;html=1;strokeColor=#FF0000;strokeWidth=3;" edge="1" parent="1" source="_aBx_GySUvGOmHs6bhtP-1780" target="_aBx_GySUvGOmHs6bhtP-1781">
          <mxGeometry relative="1" as="geometry" />
        </mxCell>
        <mxCell id="_aBx_GySUvGOmHs6bhtP-1799" style="edgeStyle=orthogonalEdgeStyle;rounded=0;orthogonalLoop=1;jettySize=auto;html=1;fontSize=18;strokeColor=#FF0000;strokeWidth=3;" edge="1" parent="1" source="_aBx_GySUvGOmHs6bhtP-1780" target="_aBx_GySUvGOmHs6bhtP-1798">
          <mxGeometry relative="1" as="geometry" />
        </mxCell>
        <mxCell id="_aBx_GySUvGOmHs6bhtP-1780" value="&lt;font style=&quot;vertical-align: inherit ; font-size: 16px&quot;&gt;&lt;font style=&quot;vertical-align: inherit ; font-size: 16px&quot;&gt;C[8]&lt;br style=&quot;font-size: 16px&quot;&gt;1000&lt;br style=&quot;font-size: 16px&quot;&gt;&lt;/font&gt;&lt;/font&gt;" style="rounded=1;whiteSpace=wrap;html=1;fillColor=#3399FF;strokeColor=#6c8ebf;fontSize=16;fontStyle=1" vertex="1" parent="1">
          <mxGeometry x="840" y="230" width="80" height="60" as="geometry" />
        </mxCell>
        <mxCell id="_aBx_GySUvGOmHs6bhtP-1785" value="" style="edgeStyle=orthogonalEdgeStyle;rounded=0;orthogonalLoop=1;jettySize=auto;html=1;strokeColor=#FF0000;strokeWidth=3;" edge="1" parent="1" source="_aBx_GySUvGOmHs6bhtP-1781" target="_aBx_GySUvGOmHs6bhtP-1783">
          <mxGeometry relative="1" as="geometry" />
        </mxCell>
        <mxCell id="_aBx_GySUvGOmHs6bhtP-1794" style="edgeStyle=orthogonalEdgeStyle;rounded=0;orthogonalLoop=1;jettySize=auto;html=1;fontSize=18;strokeColor=#FF0000;strokeWidth=3;" edge="1" parent="1" source="_aBx_GySUvGOmHs6bhtP-1781" target="_aBx_GySUvGOmHs6bhtP-1790">
          <mxGeometry relative="1" as="geometry" />
        </mxCell>
        <mxCell id="_aBx_GySUvGOmHs6bhtP-1781" value="" style="rounded=1;whiteSpace=wrap;html=1;fillColor=#3399FF;strokeColor=#6c8ebf;" vertex="1" parent="1">
          <mxGeometry x="840" y="320" width="80" height="60" as="geometry" />
        </mxCell>
        <mxCell id="_aBx_GySUvGOmHs6bhtP-1786" value="" style="edgeStyle=orthogonalEdgeStyle;rounded=0;orthogonalLoop=1;jettySize=auto;html=1;strokeColor=#FF0000;strokeWidth=3;" edge="1" parent="1" source="_aBx_GySUvGOmHs6bhtP-1783" target="_aBx_GySUvGOmHs6bhtP-1784">
          <mxGeometry relative="1" as="geometry" />
        </mxCell>
        <mxCell id="_aBx_GySUvGOmHs6bhtP-1793" style="edgeStyle=orthogonalEdgeStyle;rounded=0;orthogonalLoop=1;jettySize=auto;html=1;fontSize=18;strokeColor=#FF0000;strokeWidth=3;" edge="1" parent="1" source="_aBx_GySUvGOmHs6bhtP-1783" target="_aBx_GySUvGOmHs6bhtP-1789">
          <mxGeometry relative="1" as="geometry" />
        </mxCell>
        <mxCell id="_aBx_GySUvGOmHs6bhtP-1783" value="" style="rounded=1;whiteSpace=wrap;html=1;fillColor=#3399FF;strokeColor=#6c8ebf;" vertex="1" parent="1">
          <mxGeometry x="840" y="413" width="80" height="60" as="geometry" />
        </mxCell>
        <mxCell id="_aBx_GySUvGOmHs6bhtP-1784" value="" style="rounded=1;whiteSpace=wrap;html=1;fillColor=#3399FF;strokeColor=#6c8ebf;" vertex="1" parent="1">
          <mxGeometry x="840" y="500" width="80" height="60" as="geometry" />
        </mxCell>
        <mxCell id="_aBx_GySUvGOmHs6bhtP-1789" value="&lt;font style=&quot;vertical-align: inherit ; font-size: 16px&quot;&gt;&lt;font style=&quot;vertical-align: inherit ; font-size: 16px&quot;&gt;&lt;font style=&quot;vertical-align: inherit&quot;&gt;&lt;font style=&quot;vertical-align: inherit&quot;&gt;C[7]&lt;/font&gt;&lt;/font&gt;&lt;br style=&quot;font-size: 16px&quot;&gt;&lt;font style=&quot;vertical-align: inherit&quot;&gt;&lt;font style=&quot;vertical-align: inherit&quot;&gt;0111&lt;/font&gt;&lt;/font&gt;&lt;br style=&quot;font-size: 16px&quot;&gt;&lt;/font&gt;&lt;/font&gt;" style="rounded=1;whiteSpace=wrap;html=1;fillColor=#3399FF;strokeColor=#6c8ebf;fontSize=16;fontStyle=1" vertex="1" parent="1">
          <mxGeometry x="740" y="500" width="80" height="60" as="geometry" />
        </mxCell>
        <mxCell id="_aBx_GySUvGOmHs6bhtP-1796" value="" style="edgeStyle=orthogonalEdgeStyle;rounded=0;orthogonalLoop=1;jettySize=auto;html=1;fontSize=18;strokeColor=#FF0000;strokeWidth=3;" edge="1" parent="1" source="_aBx_GySUvGOmHs6bhtP-1790" target="_aBx_GySUvGOmHs6bhtP-1795">
          <mxGeometry relative="1" as="geometry" />
        </mxCell>
        <mxCell id="_aBx_GySUvGOmHs6bhtP-1797" style="edgeStyle=orthogonalEdgeStyle;rounded=0;orthogonalLoop=1;jettySize=auto;html=1;fontSize=18;strokeColor=#FF0000;strokeWidth=3;" edge="1" parent="1" source="_aBx_GySUvGOmHs6bhtP-1790" target="_aBx_GySUvGOmHs6bhtP-1792">
          <mxGeometry relative="1" as="geometry" />
        </mxCell>
        <mxCell id="_aBx_GySUvGOmHs6bhtP-1790" value="&lt;font style=&quot;vertical-align: inherit ; font-size: 16px&quot;&gt;&lt;font style=&quot;vertical-align: inherit ; font-size: 16px&quot;&gt;&lt;font style=&quot;vertical-align: inherit&quot;&gt;&lt;font style=&quot;vertical-align: inherit&quot;&gt;C[6]&lt;/font&gt;&lt;/font&gt;&lt;br style=&quot;font-size: 16px&quot;&gt;&lt;font style=&quot;vertical-align: inherit&quot;&gt;&lt;font style=&quot;vertical-align: inherit&quot;&gt;&lt;font style=&quot;vertical-align: inherit&quot;&gt;&lt;font style=&quot;vertical-align: inherit&quot;&gt;0110&lt;/font&gt;&lt;/font&gt;&lt;/font&gt;&lt;/font&gt;&lt;br style=&quot;font-size: 16px&quot;&gt;&lt;/font&gt;&lt;/font&gt;" style="rounded=1;whiteSpace=wrap;html=1;fillColor=#3399FF;strokeColor=#6c8ebf;fontSize=16;fontStyle=1" vertex="1" parent="1">
          <mxGeometry x="640" y="414" width="80" height="60" as="geometry" />
        </mxCell>
        <mxCell id="_aBx_GySUvGOmHs6bhtP-1792" value="&lt;font style=&quot;vertical-align: inherit ; font-size: 16px&quot;&gt;&lt;font style=&quot;vertical-align: inherit ; font-size: 16px&quot;&gt;&lt;font style=&quot;vertical-align: inherit&quot;&gt;&lt;font style=&quot;vertical-align: inherit&quot;&gt;&lt;font style=&quot;vertical-align: inherit&quot;&gt;&lt;font style=&quot;vertical-align: inherit&quot;&gt;C[5]&lt;/font&gt;&lt;/font&gt;&lt;/font&gt;&lt;/font&gt;&lt;br style=&quot;font-size: 16px&quot;&gt;&lt;font style=&quot;vertical-align: inherit&quot;&gt;&lt;font style=&quot;vertical-align: inherit&quot;&gt;&lt;font style=&quot;vertical-align: inherit&quot;&gt;&lt;font style=&quot;vertical-align: inherit&quot;&gt;&lt;font style=&quot;vertical-align: inherit&quot;&gt;&lt;font style=&quot;vertical-align: inherit&quot;&gt;&lt;font style=&quot;vertical-align: inherit&quot;&gt;&lt;font style=&quot;vertical-align: inherit&quot;&gt;0101&lt;/font&gt;&lt;/font&gt;&lt;/font&gt;&lt;/font&gt;&lt;/font&gt;&lt;/font&gt;&lt;/font&gt;&lt;/font&gt;&lt;br style=&quot;font-size: 16px&quot;&gt;&lt;/font&gt;&lt;/font&gt;" style="rounded=1;whiteSpace=wrap;html=1;fillColor=#3399FF;strokeColor=#6c8ebf;fontSize=16;fontStyle=1" vertex="1" parent="1">
          <mxGeometry x="540" y="501" width="80" height="60" as="geometry" />
        </mxCell>
        <mxCell id="_aBx_GySUvGOmHs6bhtP-1795" value="&lt;font style=&quot;vertical-align: inherit ; font-size: 16px&quot;&gt;&lt;font style=&quot;vertical-align: inherit ; font-size: 16px&quot;&gt;&lt;br style=&quot;font-size: 16px&quot;&gt;&lt;/font&gt;&lt;/font&gt;" style="rounded=1;whiteSpace=wrap;html=1;fillColor=#3399FF;strokeColor=#6c8ebf;fontSize=16;fontStyle=1" vertex="1" parent="1">
          <mxGeometry x="640" y="501" width="80" height="60" as="geometry" />
        </mxCell>
        <mxCell id="_aBx_GySUvGOmHs6bhtP-1803" value="" style="edgeStyle=orthogonalEdgeStyle;rounded=0;orthogonalLoop=1;jettySize=auto;html=1;fontSize=18;strokeColor=#FF0000;strokeWidth=3;" edge="1" parent="1" source="_aBx_GySUvGOmHs6bhtP-1798" target="_aBx_GySUvGOmHs6bhtP-1800">
          <mxGeometry relative="1" as="geometry" />
        </mxCell>
        <mxCell id="_aBx_GySUvGOmHs6bhtP-1808" style="edgeStyle=orthogonalEdgeStyle;rounded=0;orthogonalLoop=1;jettySize=auto;html=1;fontSize=18;strokeColor=#FF0000;strokeWidth=3;" edge="1" parent="1" source="_aBx_GySUvGOmHs6bhtP-1798" target="_aBx_GySUvGOmHs6bhtP-1805">
          <mxGeometry relative="1" as="geometry" />
        </mxCell>
        <mxCell id="_aBx_GySUvGOmHs6bhtP-1798" value="&lt;font style=&quot;vertical-align: inherit ; font-size: 16px&quot;&gt;&lt;font style=&quot;vertical-align: inherit ; font-size: 16px&quot;&gt;&lt;font style=&quot;vertical-align: inherit&quot;&gt;&lt;font style=&quot;vertical-align: inherit&quot;&gt;C[4]&lt;/font&gt;&lt;/font&gt;&lt;br style=&quot;font-size: 16px&quot;&gt;&lt;font style=&quot;vertical-align: inherit&quot;&gt;&lt;font style=&quot;vertical-align: inherit&quot;&gt;&lt;font style=&quot;vertical-align: inherit&quot;&gt;&lt;font style=&quot;vertical-align: inherit&quot;&gt;&lt;font style=&quot;vertical-align: inherit&quot;&gt;&lt;font style=&quot;vertical-align: inherit&quot;&gt;&lt;font style=&quot;vertical-align: inherit&quot;&gt;&lt;font style=&quot;vertical-align: inherit&quot;&gt;&lt;font style=&quot;vertical-align: inherit&quot;&gt;&lt;font style=&quot;vertical-align: inherit&quot;&gt;0100&lt;/font&gt;&lt;/font&gt;&lt;/font&gt;&lt;/font&gt;&lt;/font&gt;&lt;/font&gt;&lt;/font&gt;&lt;/font&gt;&lt;/font&gt;&lt;/font&gt;&lt;br style=&quot;font-size: 16px&quot;&gt;&lt;/font&gt;&lt;/font&gt;" style="rounded=1;whiteSpace=wrap;html=1;fillColor=#3399FF;strokeColor=#6c8ebf;fontSize=16;fontStyle=1" vertex="1" parent="1">
          <mxGeometry x="430" y="320" width="80" height="60" as="geometry" />
        </mxCell>
        <mxCell id="_aBx_GySUvGOmHs6bhtP-1804" value="" style="edgeStyle=orthogonalEdgeStyle;rounded=0;orthogonalLoop=1;jettySize=auto;html=1;fontSize=18;strokeColor=#FF0000;strokeWidth=3;" edge="1" parent="1" source="_aBx_GySUvGOmHs6bhtP-1800" target="_aBx_GySUvGOmHs6bhtP-1801">
          <mxGeometry relative="1" as="geometry" />
        </mxCell>
        <mxCell id="_aBx_GySUvGOmHs6bhtP-1823" style="edgeStyle=orthogonalEdgeStyle;rounded=0;orthogonalLoop=1;jettySize=auto;html=1;fontSize=18;strokeColor=#FF0000;strokeWidth=3;" edge="1" parent="1" source="_aBx_GySUvGOmHs6bhtP-1800" target="_aBx_GySUvGOmHs6bhtP-1822">
          <mxGeometry relative="1" as="geometry" />
        </mxCell>
        <mxCell id="_aBx_GySUvGOmHs6bhtP-1800" value="&lt;font style=&quot;vertical-align: inherit ; font-size: 16px&quot;&gt;&lt;font style=&quot;vertical-align: inherit ; font-size: 16px&quot;&gt;&lt;br style=&quot;font-size: 16px&quot;&gt;&lt;/font&gt;&lt;/font&gt;" style="rounded=1;whiteSpace=wrap;html=1;fillColor=#3399FF;strokeColor=#6c8ebf;fontSize=16;fontStyle=1" vertex="1" parent="1">
          <mxGeometry x="430" y="413" width="80" height="60" as="geometry" />
        </mxCell>
        <mxCell id="_aBx_GySUvGOmHs6bhtP-1801" value="&lt;font style=&quot;vertical-align: inherit ; font-size: 16px&quot;&gt;&lt;font style=&quot;vertical-align: inherit ; font-size: 16px&quot;&gt;&lt;br style=&quot;font-size: 16px&quot;&gt;&lt;/font&gt;&lt;/font&gt;" style="rounded=1;whiteSpace=wrap;html=1;fillColor=#3399FF;strokeColor=#6c8ebf;fontSize=16;fontStyle=1" vertex="1" parent="1">
          <mxGeometry x="430" y="500" width="80" height="60" as="geometry" />
        </mxCell>
        <mxCell id="_aBx_GySUvGOmHs6bhtP-1809" style="edgeStyle=orthogonalEdgeStyle;rounded=0;orthogonalLoop=1;jettySize=auto;html=1;fontSize=18;strokeColor=#FF0000;strokeWidth=3;" edge="1" parent="1" source="_aBx_GySUvGOmHs6bhtP-1805" target="_aBx_GySUvGOmHs6bhtP-1806">
          <mxGeometry relative="1" as="geometry" />
        </mxCell>
        <mxCell id="_aBx_GySUvGOmHs6bhtP-1824" value="" style="edgeStyle=orthogonalEdgeStyle;rounded=0;orthogonalLoop=1;jettySize=auto;html=1;fontSize=18;strokeColor=#FF0000;strokeWidth=3;" edge="1" parent="1" source="_aBx_GySUvGOmHs6bhtP-1805" target="_aBx_GySUvGOmHs6bhtP-1807">
          <mxGeometry relative="1" as="geometry" />
        </mxCell>
        <mxCell id="_aBx_GySUvGOmHs6bhtP-1805" value="&lt;font style=&quot;vertical-align: inherit ; font-size: 16px&quot;&gt;&lt;font style=&quot;vertical-align: inherit ; font-size: 16px&quot;&gt;C[2]&lt;br&gt;0010&lt;br style=&quot;font-size: 16px&quot;&gt;&lt;/font&gt;&lt;/font&gt;" style="rounded=1;whiteSpace=wrap;html=1;fillColor=#3399FF;strokeColor=#6c8ebf;fontSize=16;fontStyle=1" vertex="1" parent="1">
          <mxGeometry x="210" y="415" width="80" height="60" as="geometry" />
        </mxCell>
        <mxCell id="_aBx_GySUvGOmHs6bhtP-1806" value="&lt;font style=&quot;vertical-align: inherit ; font-size: 16px&quot;&gt;&lt;font style=&quot;vertical-align: inherit ; font-size: 16px&quot;&gt;C[1]&lt;br&gt;0001&lt;br style=&quot;font-size: 16px&quot;&gt;&lt;/font&gt;&lt;/font&gt;" style="rounded=1;whiteSpace=wrap;html=1;fillColor=#3399FF;strokeColor=#6c8ebf;fontSize=16;fontStyle=1" vertex="1" parent="1">
          <mxGeometry x="100" y="500" width="80" height="60" as="geometry" />
        </mxCell>
        <mxCell id="_aBx_GySUvGOmHs6bhtP-1807" value="&lt;font style=&quot;vertical-align: inherit ; font-size: 16px&quot;&gt;&lt;font style=&quot;vertical-align: inherit ; font-size: 16px&quot;&gt;&lt;br style=&quot;font-size: 16px&quot;&gt;&lt;/font&gt;&lt;/font&gt;" style="rounded=1;whiteSpace=wrap;html=1;fillColor=#3399FF;strokeColor=#6c8ebf;fontSize=16;fontStyle=1" vertex="1" parent="1">
          <mxGeometry x="210" y="501" width="80" height="60" as="geometry" />
        </mxCell>
        <mxCell id="_aBx_GySUvGOmHs6bhtP-1822" value="&lt;font style=&quot;vertical-align: inherit ; font-size: 16px&quot;&gt;&lt;font style=&quot;vertical-align: inherit ; font-size: 16px&quot;&gt;C[3]&lt;br style=&quot;font-size: 16px&quot;&gt;&lt;font style=&quot;vertical-align: inherit&quot;&gt;&lt;font style=&quot;vertical-align: inherit&quot;&gt;&lt;font style=&quot;vertical-align: inherit&quot;&gt;&lt;font style=&quot;vertical-align: inherit&quot;&gt;&lt;font style=&quot;vertical-align: inherit&quot;&gt;&lt;font style=&quot;vertical-align: inherit&quot;&gt;&lt;font style=&quot;vertical-align: inherit&quot;&gt;&lt;font style=&quot;vertical-align: inherit&quot;&gt;&lt;font style=&quot;vertical-align: inherit&quot;&gt;&lt;font style=&quot;vertical-align: inherit&quot;&gt;0011&lt;/font&gt;&lt;/font&gt;&lt;/font&gt;&lt;/font&gt;&lt;/font&gt;&lt;/font&gt;&lt;/font&gt;&lt;/font&gt;&lt;/font&gt;&lt;/font&gt;&lt;br style=&quot;font-size: 16px&quot;&gt;&lt;/font&gt;&lt;/font&gt;" style="rounded=1;whiteSpace=wrap;html=1;fillColor=#3399FF;strokeColor=#6c8ebf;fontSize=16;fontStyle=1" vertex="1" parent="1">
          <mxGeometry x="320" y="501" width="80" height="60" as="geometry" />
        </mxCell>
        <mxCell id="_aBx_GySUvGOmHs6bhtP-1825" value="&lt;font style=&quot;vertical-align: inherit ; font-size: 16px&quot;&gt;&lt;font style=&quot;vertical-align: inherit ; font-size: 16px&quot;&gt;A[1]&lt;br style=&quot;font-size: 16px&quot;&gt;&lt;/font&gt;&lt;/font&gt;" style="rounded=1;whiteSpace=wrap;html=1;fillColor=#FF0000;strokeColor=#6c8ebf;fontSize=16;fontStyle=1" vertex="1" parent="1">
          <mxGeometry x="100" y="580" width="80" height="40" as="geometry" />
        </mxCell>
        <mxCell id="_aBx_GySUvGOmHs6bhtP-1831" value="&lt;font style=&quot;vertical-align: inherit ; font-size: 16px&quot;&gt;&lt;font style=&quot;vertical-align: inherit ; font-size: 16px&quot;&gt;A[2]&lt;br style=&quot;font-size: 16px&quot;&gt;&lt;/font&gt;&lt;/font&gt;" style="rounded=1;whiteSpace=wrap;html=1;fillColor=#FF0000;strokeColor=#6c8ebf;fontSize=16;fontStyle=1" vertex="1" parent="1">
          <mxGeometry x="210" y="580" width="80" height="40" as="geometry" />
        </mxCell>
        <mxCell id="_aBx_GySUvGOmHs6bhtP-1832" value="&lt;font style=&quot;vertical-align: inherit ; font-size: 16px&quot;&gt;&lt;font style=&quot;vertical-align: inherit ; font-size: 16px&quot;&gt;A[3]&lt;br style=&quot;font-size: 16px&quot;&gt;&lt;/font&gt;&lt;/font&gt;" style="rounded=1;whiteSpace=wrap;html=1;fillColor=#FF0000;strokeColor=#6c8ebf;fontSize=16;fontStyle=1" vertex="1" parent="1">
          <mxGeometry x="320" y="580" width="80" height="40" as="geometry" />
        </mxCell>
        <mxCell id="_aBx_GySUvGOmHs6bhtP-1833" value="&lt;font style=&quot;vertical-align: inherit ; font-size: 16px&quot;&gt;&lt;font style=&quot;vertical-align: inherit ; font-size: 16px&quot;&gt;A[4]&lt;br style=&quot;font-size: 16px&quot;&gt;&lt;/font&gt;&lt;/font&gt;" style="rounded=1;whiteSpace=wrap;html=1;fillColor=#FF0000;strokeColor=#6c8ebf;fontSize=16;fontStyle=1" vertex="1" parent="1">
          <mxGeometry x="430" y="580" width="80" height="40" as="geometry" />
        </mxCell>
        <mxCell id="_aBx_GySUvGOmHs6bhtP-1834" value="&lt;font style=&quot;vertical-align: inherit ; font-size: 16px&quot;&gt;&lt;font style=&quot;vertical-align: inherit ; font-size: 16px&quot;&gt;A[5]&lt;br style=&quot;font-size: 16px&quot;&gt;&lt;/font&gt;&lt;/font&gt;" style="rounded=1;whiteSpace=wrap;html=1;fillColor=#FF0000;strokeColor=#6c8ebf;fontSize=16;fontStyle=1" vertex="1" parent="1">
          <mxGeometry x="540" y="580" width="80" height="40" as="geometry" />
        </mxCell>
        <mxCell id="_aBx_GySUvGOmHs6bhtP-1835" value="&lt;font style=&quot;vertical-align: inherit ; font-size: 16px&quot;&gt;&lt;font style=&quot;vertical-align: inherit ; font-size: 16px&quot;&gt;A[6]&lt;br style=&quot;font-size: 16px&quot;&gt;&lt;/font&gt;&lt;/font&gt;" style="rounded=1;whiteSpace=wrap;html=1;fillColor=#FF0000;strokeColor=#6c8ebf;fontSize=16;fontStyle=1" vertex="1" parent="1">
          <mxGeometry x="640" y="580" width="80" height="40" as="geometry" />
        </mxCell>
        <mxCell id="_aBx_GySUvGOmHs6bhtP-1836" value="&lt;font style=&quot;vertical-align: inherit ; font-size: 16px&quot;&gt;&lt;font style=&quot;vertical-align: inherit ; font-size: 16px&quot;&gt;A[7]&lt;br style=&quot;font-size: 16px&quot;&gt;&lt;/font&gt;&lt;/font&gt;" style="rounded=1;whiteSpace=wrap;html=1;fillColor=#FF0000;strokeColor=#6c8ebf;fontSize=16;fontStyle=1" vertex="1" parent="1">
          <mxGeometry x="740" y="580" width="80" height="40" as="geometry" />
        </mxCell>
        <mxCell id="_aBx_GySUvGOmHs6bhtP-1837" value="&lt;font style=&quot;vertical-align: inherit ; font-size: 16px&quot;&gt;&lt;font style=&quot;vertical-align: inherit ; font-size: 16px&quot;&gt;A[8]&lt;br style=&quot;font-size: 16px&quot;&gt;&lt;/font&gt;&lt;/font&gt;" style="rounded=1;whiteSpace=wrap;html=1;fillColor=#FF0000;strokeColor=#6c8ebf;fontSize=16;fontStyle=1" vertex="1" parent="1">
          <mxGeometry x="840" y="580" width="80" height="40" as="geometry" />
        </mxCell>
      </root>
    </mxGraphModel>
  </diagram>
</mxfile>
